<?xml version="1.0" encoding="iso-8859-1"?>
<!-- Uploaded to: SVG Repo, www.svgrepo.com, Generator: SVG Repo Mixer Tools -->
<svg version="1.1" id="Layer_1" xmlns="http://www.w3.org/2000/svg" xmlns:xlink="http://www.w3.org/1999/xlink" 
	 viewBox="0 0 512 512" xml:space="preserve">
<rect x="304.48" y="209.76" width="60.912" height="15.648"/>
<g>
	<rect x="426.352" y="209.76" style="fill:#FF6600;" width="60.912" height="15.648"/>
	<rect x="60.912" y="209.76" style="fill:#FF6600;" width="182.72" height="15.648"/>
</g>
<rect x="182.72" y="171.472" width="121.808" height="15.648"/>
<g>
	<rect x="365.44" y="171.472" style="fill:#FF6600;" width="60.912" height="15.648"/>
	<rect x="60.912" y="133.12" style="fill:#FF6600;" width="60.912" height="15.648"/>
</g>
<rect x="182.72" y="133.12" width="60.912" height="15.648"/>
<rect x="304.48" y="133.12" style="fill:#FF6600;" width="60.912" height="15.648"/>
<rect x="426.352" y="133.12" width="60.912" height="15.648"/>
<rect y="248.176" style="fill:#FF6600;" width="60.912" height="15.648"/>
<rect x="121.808" y="248.176" width="121.808" height="15.648"/>
<rect x="365.44" y="248.176" width="121.808" height="15.648"/>
<rect x="207.472" y="324.88" width="60.912" height="15.648"/>
<g>
	<rect x="85.648" y="324.88" style="fill:#FF6600;" width="60.912" height="15.648"/>
	<rect x="329.28" y="324.88" style="fill:#FF6600;" width="182.72" height="15.648"/>
</g>
<rect x="268.368" y="286.528" width="121.808" height="15.648"/>
<rect x="24.736" y="286.528" width="60.912" height="15.648"/>
<rect x="146.56" y="286.528" style="fill:#FF6600;" width="60.912" height="15.648"/>
<rect x="329.28" y="363.232" width="121.808" height="15.648"/>
<rect x="85.648" y="363.232" width="121.808" height="15.648"/>
</svg>