<?xml version="1.0" encoding="iso-8859-1"?>
<!-- Uploaded to: SVG Repo, www.svgrepo.com, Generator: SVG Repo Mixer Tools -->
<svg height="800px" width="800px" version="1.1" id="Layer_1" xmlns="http://www.w3.org/2000/svg" xmlns:xlink="http://www.w3.org/1999/xlink" 
	 viewBox="0 0 503.467 503.467" xml:space="preserve">
<g transform="translate(15 1)">
	<path style="fill:#FFF8CF;" d="M287.933,173.933c5.12,0,8.533,4.267,8.533,8.533S293.053,191,287.933,191s-8.533-4.267-8.533-8.533
		S282.813,173.933,287.933,173.933"/>
	<path style="fill:#ECF4F7;" d="M194.067,182.467c0-4.267-4.267-8.533-8.533-8.533c-4.267,0-8.533,4.267-8.533,8.533
		s4.267,8.533,8.533,8.533C189.8,191,194.067,186.733,194.067,182.467 M296.467,182.467c0-4.267-3.413-8.533-8.533-8.533
		s-8.533,4.267-8.533,8.533s3.413,8.533,8.533,8.533S296.467,186.733,296.467,182.467 M209.427,325.827
		c-21.333-2.56-39.253-8.533-53.76-15.36c-31.573-14.507-47.787-34.133-47.787-34.133V131.267c0-70.827,57.173-128,128-128
		s128,57.173,128,128v145.067c0,0-16.213,18.773-47.787,34.133c-14.507,6.827-32.427,12.8-53.76,15.36
		c-8.533,0.853-17.92,1.707-27.307,1.707S217.96,326.68,209.427,325.827"/>
	<path style="fill:#FFF8CF;" d="M185.533,173.933c4.267,0,8.533,4.267,8.533,8.533S189.8,191,185.533,191
		c-4.267,0-8.533-4.267-8.533-8.533S181.267,173.933,185.533,173.933"/>
</g>
<path style="fill:#51565F;" d="M311.467,503.467c-1.707,0-3.413-0.853-4.267-2.56c0-0.853-34.133-87.893-34.133-223.573
	c0-2.56,1.707-4.267,4.267-4.267s4.267,1.707,4.267,4.267c0,133.973,33.28,219.307,34.133,220.16c0.853,2.56,0,4.267-2.56,5.12
	C312.32,503.467,312.32,503.467,311.467,503.467z M192,503.467c-0.853,0-0.853,0-1.707,0c-2.56-0.853-3.413-3.413-2.56-5.12
	c0-0.853,34.133-86.187,34.133-220.16c0-2.56,1.707-4.267,4.267-4.267s4.267,1.707,4.267,4.267
	c0,135.68-34.133,222.72-34.133,223.573C195.413,502.613,193.707,503.467,192,503.467z M482.133,435.2
	c-87.04,0-157.867-70.827-157.867-157.867c0-2.56,1.707-4.267,4.267-4.267s4.267,1.707,4.267,4.267
	c0,81.92,67.413,149.333,149.333,149.333c2.56,0,4.267,1.707,4.267,4.267C486.4,433.493,484.693,435.2,482.133,435.2z M21.333,435.2
	c-2.56,0-4.267-1.707-4.267-4.267c0-2.56,1.707-4.267,4.267-4.267c81.92,0,149.333-67.413,149.333-149.333
	c0-2.56,1.707-4.267,4.267-4.267c2.56,0,4.267,1.707,4.267,4.267C179.2,364.373,108.373,435.2,21.333,435.2z M439.467,341.333
	c-34.987,0-64-29.013-64-64V132.267C375.467,64,320,8.533,251.733,8.533S128,64,128,132.267v145.067c0,34.987-29.013,64-64,64
	s-64-29.013-64-64c0-2.56,1.707-4.267,4.267-4.267s4.267,1.707,4.267,4.267C8.533,308.053,33.28,332.8,64,332.8
	s55.467-24.747,55.467-55.467V132.267C119.467,59.733,179.2,0,251.733,0S384,59.733,384,132.267v145.067
	c0,30.72,24.747,55.467,55.467,55.467s55.467-24.747,55.467-55.467c0-2.56,1.707-4.267,4.267-4.267c2.56,0,4.267,1.707,4.267,4.267
	C503.467,312.32,474.453,341.333,439.467,341.333z M302.933,196.267c-6.827,0-12.8-5.973-12.8-12.8s5.973-12.8,12.8-12.8
	s12.8,5.973,12.8,12.8S309.76,196.267,302.933,196.267z M302.933,179.2c-2.56,0-4.267,1.707-4.267,4.267s1.707,4.267,4.267,4.267
	s4.267-1.707,4.267-4.267S305.493,179.2,302.933,179.2z M200.533,196.267c-6.827,0-12.8-5.973-12.8-12.8s5.973-12.8,12.8-12.8
	s12.8,5.973,12.8,12.8S207.36,196.267,200.533,196.267z M200.533,179.2c-2.56,0-4.267,1.707-4.267,4.267s1.707,4.267,4.267,4.267
	s4.267-1.707,4.267-4.267S203.093,179.2,200.533,179.2z"/>
</svg>